/* XPM */
static char *_11dd09d0afd4547eb8db60afb9c6231ZUTjCC3zZEybqk4r[] = {
/* columns rows colors chars-per-pixel */
"48 48 139 2 ",
"   c black",
".  c #A87439",
"X  c #73430E",
"o  c #A87439",
"O  c #A87439",
"+  c #A87439",
"@  c #A87439",
"#  c #A87439",
"$  c #A87439",
"%  c #A87439",
"&  c #A87439",
"*  c #A87439",
"=  c #A87439",
"-  c #A87439",
";  c #A87439",
":  c #A87439",
">  c #A87439",
",  c #A87439",
"<  c #A87439",
"1  c #A87439",
"2  c #A87439",
"3  c #A87439",
"4  c #A87439",
"5  c #A87439",
"6  c #A87439",
"7  c #A87439",
"8  c #A87439",
"9  c #A87439",
"0  c #A87439",
"q  c #A87439",
"w  c None",
"e  c #A87439",
"r  c #A87439",
"t  c #A87439",
"y  c #A87439",
"u  c #A87439",
"i  c #A87439",
"p  c #A87439",
"a  c #A87439",
"s  c #A87439",
"d  c #A87439",
"f  c #A87439",
"g  c #A87439",
"h  c #A87439",
"j  c #A87439",
"k  c #A87439",
"l  c #A87439",
"z  c #A87439",
"x  c #A87439",
"c  c #A87439",
"v  c #A87439",
"b  c #A87439",
"n  c #A87439",
"m  c #A87439",
"M  c #A87439",
"N  c #A87439",
"B  c #A87439",
"V  c #A87439",
"C  c #A87439",
"Z  c #A87439",
"A  c #A87439",
"S  c #A87439",
"D  c #A87439",
"F  c #A87439",
"G  c #A87439",
"H  c #A87439",
"J  c #A87439",
"K  c #A87439",
"L  c #A87439",
"P  c #A87439",
"I  c #A87439",
"U  c #A87439",
"Y  c #A87439",
"T  c #A87439",
"R  c #A87439",
"E  c #A87439",
"W  c #A87439",
"Q  c #A87439",
"!  c #A87439",
"~  c #A87439",
"^  c #A87439",
"/  c #A87439",
"(  c #A87439",
")  c #A87439",
"_  c #A87439",
"`  c #A87439",
"'  c #A87439",
"]  c #A87439",
"[  c #A87439",
"{  c #A87439",
"}  c #A87439",
"|  c #A87439",
" . c #A87439",
".. c #A87439",
"X. c #A87439",
"o. c #A87439",
"O. c #A87439",
"+. c #A87439",
"@. c #A87439",
"#. c #73430E",
"$. c #73430E",
"%. c #A87439",
"&. c #73430E",
"*. c #73430E",
"=. c #73430E",
"-. c #73430E",
";. c #A87439",
":. c #73430E",
">. c #73430E",
",. c #73430E",
"<. c #73430E",
"1. c #73430E",
"2. c #73430E",
"3. c #73430E",
"4. c #73430E",
"5. c #73430E",
"6. c #73430E",
"7. c #73430E",
"8. c #73430E",
"9. c #73430E",
"0. c #73430E",
"q. c #73430E",
"w. c #73430E",
"e. c #73430E",
"r. c #73430E",
"t. c #73430E",
"y. c #73430E",
"u. c #73430E",
"i. c #73430E",
"p. c #73430E",
"a. c #73430E",
"s. c #73430E",
"d. c #73430E",
"f. c #73430E",
"g. c #73430E",
"h. c #73430E",
"j. c #A87439",
"k. c #73430E",
"l. c white",
/* pixels */
"                                                                                                ",
"                                                                                                ",
"      . . . . . . . . . .                                                                       ",
"      . . . . . . . . . .                                                                       ",
"      . o O + @ @ + O o .                                                                       ",
"      . o # j.j.j.j.# o .                                                                       ",
"      . o $ j.j.j.j.$ o .                                                                       ",
"      . o # j.j.j.j.% . . . . . . .                                   . . . . . . . . . .       ",
"      . o & * = = - ; : : : : > , .                                   . . < 1 : : 1 < . .       ",
"      . . 2 3 3 3 . 4 5 6 6 7 8 9 .                                   . o 0 j.6 6 j.0 o .       ",
"      . . . . . . . q w j.j.j.e r .                                   . o $ j.j.j.j.$ o .       ",
"      . . . . . . . q j.j.j.j.e r .                         . . . . . . . $ j.j.j.j.$ o .       ",
"      . . t y y y u i p a p s d f .                         . g h y y j y k l p p z x o .       ",
"      . o c v b b v x n m m n M N .                         . B V C b b Z A S m m n D . .       ",
"      . o % j.j.j.j.$ . . . . . . .                         . r F j.j.j.j.q . . . . . . .       ",
"      . o $ j.j.j.j.$ o . . . . . .                         . r G j.j.j.w q . . . . . . .       ",
"      . o % j.j.j.j.$ . . . . . . .                         . r F j.j.j.j.q . . . . . . .       ",
"      . . H J K K K L P P P I U h .                         . Y A T K K K R P P P E W o .       ",
"      . . . . . . . W j.j.j.j.Q r .                         . . . . . . . % j.j.j.j.# o .       ",
"                  . q w j.j.j.G r .                                   . o $ j.j.j.j.$ o .       ",
"                  . 4 j.j.j.j.Q r .                         . . . . . . . % j.j.j.j.# o .       ",
"                  . ! ~ ^ ^ / ( ) .                         . _ ` ' ] ] ' [ { ^ ^ } | o .       ",
"                  . 3  . . . ., o .                         . D ..X.o.o.O.+._  . . ._ . .       ",
"                  . . . . . . . . .                         . r e j.j.j.j.q . . . . . . .       ",
"                                      X X X X X X X X X X   . r e j.j.j.j.@..                   ",
"                                      X X #.$.$.$.$.#.X X   . D ..X.o.o.O.%..                   ",
"                                      X &.*.=.-.-.=.*.&.X   . _ ` ' ] ] ] ;..                   ",
"                                      X &.:.k.k.k.k.:.&.X   . . . . . . . . .                   ",
"                                      X &.>.k.k.k.k.>.&.X                                       ",
"                            X X X X X X X ,.k.k.k.k.,.X X X X X X X                             ",
"                            X <.1.2.3.3.2.4.k.k.k.k.4.2.3.3.2.1.<.X                             ",
"                            X 5.6.k.k.k.k.k.k.k.k.k.k.k.k.k.k.6.5.X                             ",
"                            X 5.7.k.k.k.k.k.k.k.k.k.k.k.k.k.k.7.5.X                             ",
"                  X X X X X X 8.7.k.k.k.k.k.k.k.k.k.k.k.k.k.k.7.8.X X X X X X                   ",
"                  X 9.0.0.0.q.w.e.k.k.k.k.k.k.k.k.k.k.k.k.k.k.e.w.q.0.0.0.9.X                   ",
"                  X r.t.y.t.t.u.i.k.k.k.k.k.k.k.k.k.k.k.k.k.k.i.u.t.t.y.t.r.X                   ",
"                  X p.k.k.k.k.k.k.k.k.k.k.k.k.k.k.k.k.k.k.k.k.k.k.k.k.k.k.p.X                   ",
"                  X a.s.k.k.k.k.k.k.k.k.k.k.k.k.k.k.k.k.k.k.k.k.k.k.k.k.s.a.X                   ",
"                  X a.s.k.k.k.k.k.k.k.k.k.k.k.k.k.k.k.k.k.k.k.k.k.k.k.k.s.a.X                   ",
"                  X a.s.k.k.k.k.k.k.k.k.k.k.k.k.k.k.k.k.k.k.k.k.k.k.k.k.s.a.X                   ",
"                  X a.s.k.k.k.k.k.k.k.k.k.k.k.k.k.k.k.k.k.k.k.k.k.k.k.k.s.a.X                   ",
"                  X a.s.k.k.k.k.k.k.k.k.k.k.k.k.k.k.k.k.k.k.k.k.k.k.k.k.s.a.X                   ",
"                  X d.k.k.k.k.k.k.k.k.k.k.k.k.k.k.k.k.k.k.k.k.k.k.k.k.k.k.d.X                   ",
"                  X f.g.h.h.h.h.h.h.h.h.h.h.h.h.h.h.h.h.h.h.h.h.h.h.h.h.g.f.X                   ",
"                  X X X X X X X X X X X X X X X X X X X X X X X X X X X X X X                   ",
"                  X X X X X X X X X X X X X X X X X X X X X X X X X X X X X X                   ",
"                                                                                                ",
"                                                                                                "
};
