/* XPM */
static char *_c44c8551d744740fe548ee61a4b552cWYyhyJ5V9UKiITbQ[] = {
/* columns rows colors chars-per-pixel */
"48 48 116 2 ",
"   c black",
".  c #DCB170",
"X  c #A58456",
"o  c #B88550",
"O  c #C8864B",
"+  c #DDB270",
"@  c #CBA368",
"#  c #A68556",
"$  c #C8874B",
"%  c #D6A364",
"&  c #DCB271",
"*  c #DCB170",
"=  c #DCB170",
"-  c #DCB170",
";  c #DCB170",
":  c #DCB170",
">  c #DCB170",
",  c #DCB170",
"<  c #DCB170",
"1  c None",
"2  c #DCB170",
"3  c #B78550",
"4  c #A58456",
"5  c #997341",
"6  c #A98455",
"7  c #A58456",
"8  c #A58456",
"9  c #A38457",
"0  c #BE8249",
"q  c #A58456",
"w  c #C9864B",
"e  c #A58456",
"r  c #C8864B",
"t  c #A58456",
"y  c #C8864B",
"u  c #DDB270",
"i  c #CBA368",
"p  c #A68556",
"a  c #A58456",
"s  c #A58456",
"d  c #C8864B",
"f  c #C8864B",
"g  c #C8864B",
"h  c #C8874B",
"j  c #D6A364",
"k  c #DCB271",
"l  c #DDB270",
"z  c #CBA368",
"x  c #A68556",
"c  c #A58456",
"v  c #C8864B",
"b  c #C8864B",
"n  c #C8874B",
"m  c #D6A364",
"M  c #DCB271",
"N  c #DCB170",
"B  c #DDB170",
"V  c #DDB271",
"C  c #DDB270",
"Z  c #DBAF6F",
"A  c #DAAC6C",
"S  c #D8AC6C",
"D  c #D5AC6D",
"F  c #D4A96A",
"G  c #D2A868",
"H  c #D9AE6E",
"J  c #DCB271",
"K  c #D6A566",
"L  c #CB8C50",
"P  c #CA8B4F",
"I  c #CB8B4F",
"U  c #BD8A54",
"Y  c #AB8959",
"T  c #AC8959",
"R  c #AC8A59",
"E  c #9E7A46",
"W  c #936D37",
"Q  c #946D38",
"!  c #956E38",
"~  c #C59C5E",
"^  c #D6A364",
"/  c #C8864B",
"(  c #B88550",
")  c #A48456",
"_  c #A58456",
"`  c #957140",
"'  c #89632F",
"]  c #896330",
"[  c #8A6430",
"{  c #C2995C",
"}  c #C8874B",
"|  c #C9864B",
" . c #B98550",
".. c #967241",
"X. c #8A632F",
"o. c #8B6531",
"O. c #C9874B",
"+. c #896430",
"@. c #D4A365",
"#. c #C4864D",
"$. c #C4864C",
"%. c #916833",
"&. c #926934",
"*. c #C59A5D",
"=. c #CCA367",
"-. c #AA8555",
";. c #A98455",
":. c #C18248",
">. c #C18348",
",. c #D3A263",
"<. c #CBA368",
"1. c #A58556",
"2. c #C9874C",
"3. c #D6A464",
"4. c #A68556",
"5. c white",
/* pixels */
"                                                                                                ",
"                                                                                                ",
"                                                                                                ",
"                                                                                                ",
"                                                                                                ",
"                                                                                                ",
"          . . . . . . . . . . . . . . . . . . . . . . . . . . . . . . . . . . . . . .           ",
"          . * = - - - - - - - - - - - - - - - - - - - - - - - - - - - - - - - - = * .           ",
"          . ; : > , , , , , , , , , , , , , , , , , , , , , , , , , , , , , , > : ; .           ",
"          . < 1 N N N N N N N N N N N N N N N N N N N N N N N N N N N N N N N N 1 < .           ",
"          . < 2 N N N N N N N N N N N N N N N N N N N N N N N N N N N N N N N N 2 < .           ",
"          . < 2 N N N N N N N N N N N N N N N N N N N N N N N N N N N N N N N N 2 < .           ",
"          . < 2 N N N N N N N N N N N N N N N N N N N N N N N N N N N N N N N N 2 < .           ",
"          . < 2 N N N N N N N N N N N N N N N N N N N N N N N N N N N N N N N N 2 < .           ",
"          . < 2 N N N N N N N N N N N N N N N N N N N N N N N N N N N N N N N N 2 < .           ",
"          . < 2 N N N N N N N N N N N N N N N N N N N N N N N N N N N N N N N N 2 < .           ",
"          . < 2 N N N N N N N N N N N N N N N N N N N N N N N N N N N N N N N N 2 < .           ",
"          . < 2 N N N N N N N N N N N N N N N N N N N N N N N N N N N N N N N N 2 < .           ",
"          . < 2 N N N N N N N N N N N N N N N N N N N N N N N N N N N N N N N N 2 < .           ",
"          . < 2 N N N N N N N N N N N N N N N N N N N N N N N N N N N N N N N N 2 < .           ",
"          . < 2 N N N N N N N N N N N N N N N N N N N N N N N N N N N N N N N N 2 < .           ",
"          . < 2 N N N N N N N N N N N N N N N N N N N N N N N N N N N N N N N N 2 < .           ",
"          . < 2 N N N N N N N N N N N N N N N N N N N B V C C C C C N N N N N N 2 < .           ",
"          . < 2 N N N N N Z A A A A A A S D D D D D D F G G G G G G H N N N N N 2 < .           ",
"          . < 2 N N N N J K L P P P P I U Y T T T T R E W Q Q Q Q ! ~ V N N N N 2 < .           ",
"          . < 2 N N N N J ^ / / / / / / ( ) _ _ _ _ _ ` ' ] ] ] ' [ { V N N N N 2 < .           ",
"          . < 2 N N N N J ^ } / / / / |  ._ _ _ _ _ _ ..X.[ [ [ [ o.{ V N N N N 2 < .           ",
"          . < 2 N N N N J ^ } / / / / |  ._ _ _ _ _ _ ..X.[ [ [ [ o.{ V N N N N 2 < .           ",
"          . < 2 N N N N J ^ } / / / / |  ._ _ _ _ _ _ ..X.[ [ [ [ o.{ V N N N N 2 < .           ",
"          . < 2 N N N N J ^ } / / / / |  ._ _ _ _ _ _ ..X.[ [ [ [ o.{ V N N N N 2 < .           ",
"          . < 2 N N N N J ^ O./ / / / |  ._ _ _ _ _ _ ..' [ [ [ +.o.{ V N N N N 2 < .           ",
"          . < 2 N N N N J @.#.$.$.$.$.$.3 4 4 4 4 4 4 5 %.%.%.%.%.&.*.V N N N N 2 < .           ",
"          . < 2 N N N N C =.-.;.;.;.;.;.6 7 8 8 8 8 9 0 :.:.:.:.:.>.,.J N N N N 2 < .           ",
"          . < 2 N N N N C <.1._ _ _ _ _ q X X X X X o w / / / / / 2.3.J N N N N 2 < .           ",
"          . < 2 N N N N C <.4._ _ _ _ _ e X X     O O r / / / / / } ^ J N N N N 2 < .           ",
"          . < 2 N N N N C <.4._ _ _ _ _ e X X     O O r / / / / / } ^ J N N N N 2 < .           ",
"          . < 2 N N N N C <.4._ _ _ _ _ e X X     O O r / / / / / } ^ J N N N N 2 < .           ",
"          . < 2 N N N N C <.4._ _ _ _ _ e X X     O O r / / / / / } ^ J N N N N 2 < .           ",
"          . < 1 N N N N C <.4._ _ _ _ _ t X X     O O y / / / / / } ^ J N N N N 1 < .           ",
"          . ; : > , , , u i p 4 4 4 4 a s X X     O O d f g g g g h j k , , , > : ; .           ",
"          . * = - - - - l z x 8 8 8 8 8 c X X     O O v b b b b b n m M - - - - = * .           ",
"          . . . . . . . + @ # X X X X X X X X     O O O O O O O O $ % & . . . . . . .           ",
"                                                                                                ",
"                                                                                                ",
"                                                                                                ",
"                                                                                                ",
"                                                                                                ",
"                                                                                                "
};
