/* XPM */
static char *_f7570d4f5fe49f187f97e47277bbfedZhvBQx7dtkq1JFoN[] = {
/* columns rows colors chars-per-pixel */
"48 48 178 2 ",
"   c None",
".  c #3A3C3D",
"X  c #3B3C3D",
"o  c #3C3C3D",
"O  c #3C3D3D",
"+  c gray24",
"@  c #46413C",
"#  c #4A423C",
"$  c #4A433C",
"%  c #4B433C",
"&  c #51453B",
"*  c #53463B",
"=  c #54473B",
"-  c #5A493A",
";  c #5B4A3A",
":  c #634D39",
">  c #6E5138",
",  c #6E5238",
"<  c #755437",
"1  c #737A7B",
"2  c #875C35",
"3  c #895C35",
"4  c #8A5D35",
"5  c #8B5D35",
"6  c #8E5F34",
"7  c #8F5F34",
"8  c #915F32",
"9  c #905F33",
"0  c #915F33",
"q  c #916033",
"w  c #906034",
"e  c #916034",
"r  c #926034",
"t  c #926134",
"y  c #87705C",
"u  c #87715C",
"i  c #87715D",
"p  c #857566",
"a  c #847F6A",
"s  c #847F6F",
"d  c #B38C3E",
"f  c #B38D3E",
"g  c #B38C3F",
"h  c #E79D1E",
"j  c #E69C1F",
"k  c #C8922F",
"l  c #DC9925",
"z  c #DF9C27",
"x  c #D5982F",
"c  c #DC9A28",
"v  c #D99A2D",
"b  c #D89A2E",
"n  c #C99432",
"m  c #CE9636",
"M  c #CF9736",
"N  c #CE9737",
"B  c #CF9737",
"V  c #C4933C",
"C  c #CB963A",
"Z  c #CC9639",
"A  c #E49C20",
"S  c #E59D21",
"D  c #E79E20",
"F  c #E69E21",
"G  c #E79E21",
"H  c #E59D22",
"J  c #E49D23",
"K  c #E69D22",
"L  c #E69E22",
"P  c #E29C25",
"I  c #E09C26",
"U  c #E89E21",
"Y  c #AA8840",
"T  c #AB8A43",
"R  c #AD8A42",
"E  c #BA9149",
"W  c #BB9149",
"Q  c #A98C59",
"!  c #AB8D59",
"~  c #93866E",
"^  c #988769",
"/  c #998869",
"(  c #898377",
")  c #8B8475",
"_  c #8D8474",
"`  c #84817B",
"'  c #84827B",
"]  c #83817C",
"[  c #82817D",
"{  c #83817D",
"}  c #81817E",
"|  c #80807F",
" . c #84817C",
".. c #84827C",
"X. c #A08962",
"o. c #AA8768",
"O. c #C59440",
"+. c #C49441",
"@. c #05509D",
"#. c #0B539C",
"$. c #08539E",
"%. c #09539F",
"&. c #0C549C",
"*. c #0F559D",
"=. c #185792",
"-. c #1B5994",
";. c #215B92",
":. c #366182",
">. c #386383",
",. c #3E6582",
"<. c #004DA1",
"1. c #004DA2",
"2. c #004DA3",
"3. c #004EA2",
"4. c #004FA3",
"5. c #004CA4",
"6. c #004FA4",
"7. c #004FA5",
"8. c #0050A3",
"9. c #0351A3",
"0. c #0652A1",
"q. c #0752A1",
"w. c #0552A2",
"e. c #687784",
"r. c #637588",
"t. c #627589",
"y. c #637688",
"u. c #647688",
"i. c #7E7F80",
"p. c #7D7F82",
"a. c #7D8081",
"s. c #7F8080",
"d. c #7E8081",
"f. c #7F8081",
"g. c #7F8181",
"h. c #7D9EBD",
"j. c #6D98C5",
"k. c #6E99C5",
"l. c #6C98C6",
"z. c #6D98C6",
"x. c #729AC3",
"c. c #808080",
"v. c #808180",
"b. c #818180",
"n. c #8CA3B4",
"m. c #D9BD89",
"M. c #C9B892",
"N. c #C6B19F",
"B. c #C7B2A0",
"V. c #C3B9B1",
"C. c #E3C083",
"Z. c #E8C280",
"A. c #E9C280",
"S. c #E8C281",
"D. c #EAC280",
"F. c #E9CC99",
"G. c #EACC99",
"H. c #D4C5A5",
"J. c #C1C0BE",
"K. c #E0C9A2",
"L. c #89ABCD",
"P. c #8BACCE",
"I. c #90ADCB",
"U. c #BFC0C0",
"Y. c #B8CADC",
"T. c #ECECEC",
"R. c #EDEDEC",
"E. c #EEEDED",
"W. c #EEEEED",
"Q. c #EFEEED",
"!. c #ECEDEE",
"~. c #EDEDEE",
"^. c #EDEDEF",
"/. c #EDEEEF",
"(. c #EEEEEE",
"). c #EEEEEF",
"_. c #F0EFED",
"`. c #ECEDF0",
/* pixels */
"                                                                                                ",
"                                                                                                ",
"                                                                                                ",
"                                                                                                ",
"                                                e e e e e                                       ",
"                                                e e e e e                                       ",
"                                                e e e e e                                       ",
"                                        e e e e e e e e e e e e e                               ",
"                                      e e e e e e e e e e e e e e e                             ",
"                                      e e e e e e e e e e e e e e e                             ",
"                                      3 3 3 3 3 e e e e e e e e e e                             ",
"                    + + + + > e e e 7 ; $ $ $ * 3 e e e e e e e e e e e e e                     ",
"                    + + + + > e e e 7 * . + . @ 2 e e e e e e e e e e e e e                     ",
"                    + + + + > e e e 7 * . + . @ 2 e e e e e e e e e e e e e                     ",
"                    + + + + < e e e 7 : * = * ; 3 e e e e e e e e e e e e e o.                  ",
"                            7 e e e e 7 7 7 7 7 e e e e e e e e e e e e e 0 N.Q.Q.Q.Q.          ",
"                            e e e e e e e e e e e e e e e e e e e e e e e 0 B.Q.Q.Q.Q.          ",
"                            0 q q q q q q q q q q q q q q q q q q q q q q 0 B.Q.Q.Q.Q.          ",
"          H H H H W g.g.g.g.p i i i i i i i i i i i i i i i i i i i i i i i V.Q.!.!.Q.          ",
"          H H H H W g.g.g.g.g.g.g.g.g.g.g.g.g.g.g.g.g.g.g.g.g.g.g.g.g.g.g.g.U.Q.!.!.Q.          ",
"          H H H H W g.g.g.g.g.g.g.g.g.g.g.g.g.g.g.g.g.g.g.g.g.g.g.g.g.g.g.i.U.Q.T.T.Q.          ",
"          H H H H W g.g.g.g.| ' ' ' ' | g.g.g.|  .' ' ' | g.g.g.g.| ' ' ' ' J.Q.!.T.T.          ",
"                            O.N N N C ~ g.g.g.( O.N N N W | g.g.g.X.N N N N K.Q.!.!.Q.          ",
"                            H H H H P ^ g.g.g.) v H H H Z | g.g.i.! H H H H G.`.Q.Q.Q.          ",
"                            H H H H P / g.v.v._ v H H H C  .v.v.g.! U H H H G.`.Q.Q.Q.          ",
"                            H H H H z s y.u.y.1 x H H H V e.y.u.y.a f f f f H.Q.Q.Q.Q.          ",
"                            H H H H c ,.8.0.0.;.n H H H R *.0.0.0.$.&.*.*.$.I._.Q.Q.Q.          ",
"                            H H H H c >.5.8.5.-.n H H H T $.8.8.8.8.8.8.8.1.P._.Q.Q.Q.          ",
"                            A A H H l :.5.1.1.=.k h H h T @.1.1.1.1.1.1.1.1.L._.!.!.!.          ",
"                            S.D.D.D.C.n.k.k.k.h.m.D.D.D.M.x.k.k.k.k.k.k.k.k.Y.Q.!.!.T.          ",
"                            !.Q.Q.Q.Q.Q.Q.Q.Q.Q.!.!.Q.Q.Q.Q.Q.Q.Q.Q.Q.Q.Q.Q.Q.Q.T.T.T.          ",
"                            !.!.!.Q.Q.Q.Q.Q.Q.!.!.!.Q.Q.Q.Q.Q.Q.Q.Q.Q.Q.Q.Q.Q.T.T.T.T.          ",
"                            Q.Q.!.!.!.T.T.T.Q.Q.Q.!.!.!.T.T.T.T.T.T.Q.Q.Q.Q.Q.!.!.!.T.          ",
"                            Q.Q.Q.Q.T.T.T.T.Q.Q.Q.Q.T.T.T.T.T.T.T.T.Q.Q.Q.Q.Q.!.T.T.Q.          ",
"                            Q.Q.Q.Q.Q.Q.T.T.T.Q.T.T.T.T.!.!.Q.Q.!.!.Q.Q.Q.Q.T.T.T.T.T.          ",
"                            Q.Q.Q.Q.Q.Q.T.T.Q.Q.T.T.T.T.!.Q.Q.Q.!.Q.Q.Q.Q.!.T.T.T.T.T.          ",
"                              T.T.T.T.!.Q.Q.T.T.T.T.!.T.T.T.Q.Q.!.T.Q.Q.Q.Q.T.T.Q.Q.Q.          ",
"                                      !.Q.!.T.T.Q.Q.!.!.T.T.Q.Q.T.T.T.Q.Q.Q.                    ",
"                                      Q.Q.Q.T.T.Q.Q.Q.!.T.T.T.T.T.T.T.T.Q.!.                    ",
"                                      Q.Q.Q.T.T.Q.Q.Q.Q.T.T.T.Q.T.T.T.T.Q.Q.                    ",
"                                      Q.Q.Q.T.T.T.T.T.T.Q.Q.Q.Q.T.T.!.!.Q.Q.                    ",
"                                      Q.Q.Q.T.T.!.T.T.T.Q.Q.Q.Q.T.T.T.Q.Q.Q.                    ",
"                                      Q.Q.Q.Q.!.Q.Q.T.T.Q.!.Q.Q.T.T.Q.Q.Q.Q.                    ",
"                                      Q.Q.Q.Q.!.Q.Q.T.T.T.!.Q.Q.T.T.Q.Q.Q.Q.                    ",
"                                                                                                ",
"                                                                                                ",
"                                                                                                ",
"                                                                                                "
};
