/* XPM */
static char *_a47b10ded4549d7b9ca4e458fdbcba3qpoUjbtJB8bFInMQ[] = {
/* columns rows colors chars-per-pixel */
"48 48 192 2 ",
"   c black",
".  c #916034",
"X  c #E49D23",
"o  c #E59E23",
"O  c #C2842A",
"+  c #E09C26",
"@  c #988769",
"#  c #7E8081",
"$  c #7F8080",
"%  c #877360",
"&  c #7F807F",
"*  c #83817C",
"=  c #C8953D",
"-  c #81817F",
";  c #4B6C8E",
":  c #0050A3",
">  c #727663",
",  c #0451A1",
"<  c #E09C25",
"1  c #6A7467",
"2  c #916034",
"3  c #916034",
"4  c #916034",
"5  c #916034",
"6  c #916034",
"7  c #916034",
"8  c #916034",
"9  c #916034",
"0  c #916034",
"q  c #916034",
"w  c #916034",
"e  c #916034",
"r  c #916034",
"t  c #916034",
"y  c #916034",
"u  c #916034",
"i  c #916034",
"p  c #916034",
"a  c #916034",
"s  c #916034",
"d  c #916034",
"f  c #916034",
"g  c #916034",
"h  c #916034",
"j  c #916034",
"k  c #916034",
"l  c #916034",
"z  c #916034",
"x  c #916034",
"c  c #916034",
"v  c #916034",
"b  c #916034",
"n  c #916034",
"m  c #916034",
"M  c #916034",
"N  c #926034",
"B  c #E49D23",
"V  c #E49D23",
"C  c #E49D23",
"Z  c #E59E23",
"A  c #C2842A",
"S  c #6E5138",
"D  c #684F38",
"F  c #8E5F34",
"G  c #916034",
"H  c #916034",
"J  c #E49D23",
"K  c None",
"L  c #E49D23",
"P  c #E49D23",
"I  c #E09C26",
"U  c #E09C26",
"Y  c #988769",
"T  c #988769",
"R  c #7E8081",
"E  c #7E8081",
"W  c #7F8080",
"Q  c #7F8080",
"!  c #916033",
"~  c #8E6642",
"^  c #7E8183",
"/  c #7F8080",
"(  c #7F8080",
")  c #7F8080",
"_  c #807E7A",
"`  c #7F8080",
"'  c #7F8080",
"]  c #7F8080",
"[  c #7F8080",
"{  c #7F8080",
"}  c #7F8080",
"|  c #7F8080",
" . c #7F8080",
".. c #7F8080",
"X. c #7F8080",
"o. c #7F8080",
"O. c #7F8080",
"+. c #8F8571",
"@. c #7F8080",
"#. c #7F8080",
"$. c #7F8080",
"%. c #6D7B90",
"&. c #DE9B29",
"*. c #7F8080",
"=. c #81817F",
"-. c #E49D23",
";. c #4B6C8E",
":. c #E49D23",
">. c #0050A3",
",. c #004FA4",
"<. c #E49D23",
"1. c #E49D23",
"2. c #E59D23",
"3. c #A28748",
"4. c #847D59",
"5. c #3C6481",
"6. c #004EA6",
"7. c #0050A3",
"8. c #E49D23",
"9. c #E89E21",
"0. c #F5A31A",
"q. c #E49D23",
"w. c #E49D23",
"e. c #E49D23",
"r. c #E49D23",
"t. c #E49D23",
"y. c #E49D23",
"u. c #E49D23",
"i. c #E49D23",
"p. c #916034",
"a. c #5F4B39",
"s. c #604B39",
"d. c #614C39",
"f. c #855B35",
"g. c #926034",
"h. c #8B5E35",
"j. c #664E39",
"k. c #E49D23",
"l. c #E59E23",
"z. c #C2842A",
"x. c #3A3C3D",
"c. c #3C3C3D",
"v. c #3B3C3D",
"b. c #3F3E3D",
"n. c #7C5736",
"m. c #926134",
"M. c #875C35",
"N. c #46413C",
"B. c #51453B",
"V. c #8E5F34",
"C. c gray24",
"Z. c #403E3D",
"A. c #47413C",
"S. c #3C3D3D",
"D. c #52463B",
"F. c #E69E22",
"G. c #E09C26",
"H. c #E29D26",
"J. c #C0832C",
"K. c #433F3C",
"L. c #7D5836",
"P. c #4A423C",
"I. c #54473B",
"U. c #988769",
"Y. c #98886A",
"T. c #957753",
"R. c #8C5E35",
"E. c #7F5836",
"W. c #815936",
"Q. c #906034",
"!. c #7E8081",
"~. c #7D8083",
"^. c #867362",
"/. c #7F8080",
"(. c #7F8181",
"). c #867361",
"_. c #867360",
"`. c #916033",
"'. c #7F8081",
"]. c #867464",
"[. c #8F643D",
"{. c #807E7C",
"}. c #817C77",
"|. c #7D8081",
" X c #81817F",
".X c #4B6C8E",
"XX c #0050A3",
"oX c #0050A4",
"OX c #857D58",
"+X c #867D58",
"@X c #E89E21",
"#X c white",
/* pixels */
"                                                                                                ",
"                                                                                                ",
"                                                                                                ",
"                                  . . . . . . . . .                                             ",
"                                  . 2 3 4 5 4 6 7 .                                             ",
"                                  . 8 9 0 q w e r .                                             ",
"                                  . 8 t p.p.p.y u .                                             ",
"                                  . 8 t p.p.p.i u .                                             ",
"                        . . . . . . p a p.p.p.i s . . . . . .                                   ",
"                        . . d f g g h j p.p.p.k l z g f x c .                                   ",
"                        . . v p.p.p.p.p.p.p.p.p.p.p.p.p.b 8 .                                   ",
"                        . . n p.p.p.p.p.p.p.p.p.p.p.p.p.t 8 .                                   ",
"      X X X X X o O . . . . n p.p.p.p.p.p.p.p.p.p.p.p.p.t 8 . . . . . .                         ",
"      X X X X X o O . . . . m p.p.p.p.p.p.p.p.p.p.p.p.p.M N . . . . . .                         ",
"      X B V C C Z A n n n m S a.s.a.d.f.g.p.p.h.j.a.s.a.D F n n G H . .                         ",
"      X J K k.k.l.z.p.p.p.p.a.x.c.v.b.n.m.p.g.M.N.v.c.x.B.V.p.p.p.G . .                         ",
"      X L P k.k.l.z.p.p.p.p.s.c.C.C.Z.n.m.p.g.M.A.S.C.c.D.V.p.p.p.n . .                         ",
"      X L P k.k.F.z.p.p.p.p.a.v.C.C.Z.n.m.p.g.M.A.S.C.c.D.V.p.p.p.n . .                         ",
"      + I U G.G.H.J.p.p.p.p.d.b.Z.Z.K.L.g.p.g.M.P.b.Z.b.I.V.p.p.p.n . .                         ",
"      @ Y T U.U.Y.T.p.p.p.p.f.n.n.n.L.R.p.p.p.V.E.n.n.n.W.Q.p.p.p.n . .                         ",
"      # R E !.!.~.^.p.p.p.p.g.m.m.m.g.p.p.p.p.p.g.m.m.m.g.p.p.p.p.n . .                         ",
"      $ W Q /./.(.).p.p.p.p.p.p.p.p.p.p.p.p.p.p.p.p.p.p.p.p.p.p.p.n . .                         ",
"      $ W Q /./.(._.`.`.`.`.`.`.`.`.`.`.`.`.`.`.`.`.`.`.`.`.`.`.`.! % & $ $ $ $ $ $ $ $ $       ",
"      $ W Q /./.'.].[.[.[.[.[.[.[.[.[.[.[.[.[.[.[.[.[.[.[.[.[.[.[.~ ^ / / / / / / / ( ) $       ",
"      $ W Q /././.{.}.}.}.}.}.}.}.}.}.}.}.}.}.}.}.}.}.}.}.}.}.}.}._ ` ` ` ` ` ` ` ' ] [ $       ",
"      $ W Q /./././.'.'.'.'.'.'.'.'.'.'.'.'.'.'.'.'.'.'.'.'.'.'.'./././././././././.{ } $       ",
"      $ W Q /./././././././././././././././././././././././././././././././././././.Q W $       ",
"      $ } | /./././././././././././././././././././././././././././././././.!.|.!.!.E R #       ",
"      $  ...X.X.X.X.X.X.X.o.O././././././././././././././././././.O.o.X.X.o.+.U.U.U.T Y @       ",
"      $ @.#.#.#.#.#.#.#.#.) $././././././././././././././././././.$.) #.#.%.&.G.G.G.U I +       ",
"      $ $ $ $ $ $ $ $ $ $ $ *././././././././././././././././././.*.$ $ * = C k.k.k.P L X       ",
"                        $ $ *././././././././././././././././././.*.$ $ X X C k.k.k.P L X       ",
"                        - - =. X X X X X X X X X X X X X X X X X X=.- - X X -.k.k.k.K J X       ",
"                        ; ; ;..X.X.X.X.X.X.X.X.X.X.X.X.X.X.X.X.X.X;.; ; X X :.-.C C V B X       ",
"                        : : >.XXXXXXXXXXXXXXXXXXXXXXXXXXXXXXXXXXXX>.: : X X X X X X X X X       ",
"                        : : >.XXXXXXXXXXXXXXXXXXXXXXXXXXXXXXXXXXXX>.: : X X X X X X X X X       ",
"                X X X X > , >.XXXXXXXXXXXXXXXXXXXXXXXXXXXXXXXXXXXX>., > X X X X                 ",
"                X X X X < > ,.oXoXoXoXXXXXXXXXXXXXXXXXXXXXoXoXoXoX,.> < X X X X                 ",
"                X <.1.C C 2.3.OX+X+X4.5.6.7.7.7.7.7.7.6.5.4.+X+XOX3.2.C C 1.<.X                 ",
"                X 8.k.k.k.k.F.@X@X@X9.0.1 : : : : : : 1 0.9.@X@X@XF.k.k.k.k.8.X                 ",
"                X q.k.k.k.k.k.k.k.k.P L X             X L P k.k.k.k.k.k.k.k.q.X                 ",
"                X q.k.k.k.k.k.k.k.k.P w.X             X w.P k.k.k.k.k.k.k.k.q.X                 ",
"                X e.r.P P P P P P P t.y.X             X y.t.P P P P P P P r.e.X                 ",
"                X u.w.L L L L L L w.y.i.X             X i.y.w.L L L L L L w.u.X                 ",
"                X X X X X X X X X X X X X             X X X X X X X X X X X X X                 ",
"                                                                                                ",
"                                                                                                ",
"                                                                                                "
};
