/* XPM */
static char *b7e518d178884555d76fb5cc81adbe04OEgkJ9mkt4NhlHVQ[] = {
/* columns rows colors chars-per-pixel */
"48 48 44 1 ",
"  c black",
". c gray77",
"X c #C5C5C5",
"o c #BCBCBC",
"O c #878888",
"+ c #7E7F7F",
"@ c #7F8080",
"# c gray77",
"$ c gray77",
"% c gray77",
"& c gray77",
"* c gray77",
"= c gray77",
"- c #C5C5C5",
"; c #C5C5C5",
": c #C0C0C0",
"> c #BCBCBC",
", c None",
"< c #C5C5C5",
"1 c #BCBCBC",
"2 c #BCBCBC",
"3 c #878888",
"4 c #878888",
"5 c #7E7F7F",
"6 c #7E7F7F",
"7 c #7F8080",
"8 c #7F8080",
"9 c #7F8080",
"0 c #7F8080",
"q c #7F8080",
"w c #7F8080",
"e c gray77",
"r c #C5C5C5",
"t c #BCBCBC",
"y c gray74",
"u c #C3C3C3",
"i c #878888",
"p c gray56",
"a c #7E7F7F",
"s c #7F8080",
"d c #B4B5B5",
"f c #868787",
"g c #808181",
"h c white",
/* pixels */
"                                                ",
"                                                ",
"                                                ",
"                                                ",
"                                                ",
"                                                ",
"              ............................      ",
"              .#$%%%%%%%%%%%%%%%%%%%%%%$#.      ",
"              .$&*====================*&$.      ",
"              .%*eeeeeeeeeeeeeeeeeeeeee*%.      ",
"              .%=eeeeeeeeeeeeeeeeeeeeee=%.      ",
"              .%=eeeeeeeeeeeeeeeeeeeeee=%.      ",
"              .%=eeeeeeeeeeeeeeeeeeeeee=%.      ",
"              .%=eeeeeeeeeeeeeeeeeeeeee=%.      ",
"      .........-;rrrrrreeeeeeeeeeeeeeee=%.      ",
"      .#$%%%%%-:>ttttttyueeeeeeeeeeeeee=%.      ",
"      .$&*====;>,iiiiiipyeeeeeeeeeeeeee=%.      ",
"      .%*eeeeertiaaaaaaitreeeeeeeeeeeee=%.      ",
"      .%=eeeeertiassssaitreeeeeeeeeeeee=%.      ",
"      .%=eeeeertiassssaitreeeeeeeeeeeee=%.      ",
"      .%=eeeeertiassssaitreeeeeeeeeeeee=%.      ",
"      .%=eeeeertiassssaitreeeeeeeeeeeee=%.      ",
"      .%=eeeeertiaaaaaaitreeeeeeerrrrrr;<X      ",
"      .%=eeeeeeypiiiiiipyeeeeeeuytttttt12o      ",
"      .%=eeeeeeuyttttttyueeeeeeypiiiiii34O      ",
"      .%=eeeeeeeerrrrrreeeeeeertiaaaaaa56+      ",
"      .%=eeeeeeeeeeeeeeeeeeeeertiasssss78@      ",
"      .%=eeeeeeeeeeeeeeeeeeeeertiasssss78@      ",
"      .%=eeeeeeeeeeeeeeeeeeeeertiasssss78@      ",
"      .%=eeeeeeeeeeeeeeeeeeeeertiasssss78@      ",
"      X<;rrrrrreeeeeeeeeerrrrrrtiasssss78@      ",
"      o21ttttttyueeeeeeuyttttttdfssssss78@      ",
"      O43iiiiiipyeeeeeeypiiiiiifgssssss78@      ",
"      +65aaaaaaitreeeertiaaaaaassssssss78@      ",
"      @87sssssaitreeeertiasssssssssssss78@      ",
"      @87sssssaitreeeertiasssssssssssss78@      ",
"      @87sssssaitreeeertiasssssssssssss78@      ",
"      @87sssssaitreeeertiasssssssssssss78@      ",
"      @89sssssaitreeeertiasssssssssssss98@      ",
"      @0q97777531;====;1357777777777779q0@      ",
"      @w088888642<%%%%<24688888888888880w@      ",
"      @@@@@@@@+OoX....XoO+@@@@@@@@@@@@@@@@      ",
"                                                ",
"                                                ",
"                                                ",
"                                                ",
"                                                ",
"                                                "
};
