/* XPM */
static char *_d000d4bc2c44fdccba5a38a6edbc926Olig5CqST33ilchk[] = {
/* columns rows colors chars-per-pixel */
"48 48 135 2 ",
"   c None",
".  c #191211",
"X  c #1A1311",
"o  c #1B1312",
"O  c #1E1513",
"+  c #1E1514",
"@  c #1F1514",
"#  c #1F1614",
"$  c #201614",
"%  c #231815",
"&  c #251916",
"*  c #271A17",
"=  c #2A1D16",
"-  c #2D1F18",
";  c #2F2018",
":  c #33221A",
">  c #34231A",
",  c #37251E",
"<  c #3A271C",
"1  c #3B271C",
"2  c #3C281C",
"3  c #3D291C",
"4  c #3E2A1D",
"5  c #452E1F",
"6  c #462F1F",
"7  c #483020",
"8  c #4F3521",
"9  c #503522",
"0  c #503622",
"q  c #583B24",
"w  c #58392C",
"e  c #58392D",
"r  c #5F3D30",
"t  c #603E2E",
"y  c #634227",
"u  c #694629",
"i  c #6F4A2A",
"p  c #754E2C",
"a  c #764E2C",
"s  c #79502D",
"d  c #7A512D",
"f  c #6E4636",
"g  c #7D4F3C",
"h  c #7C4F3D",
"j  c #79543D",
"k  c #81552F",
"l  c #835730",
"z  c #845730",
"x  c #845830",
"c  c #855831",
"v  c #875931",
"b  c #895B32",
"n  c #8A5B33",
"m  c #8C5C32",
"M  c #8D5D33",
"N  c #8E5E33",
"B  c #8F5F33",
"V  c #8F5F34",
"C  c #8F5E35",
"Z  c #80523C",
"A  c #905F33",
"S  c #906033",
"D  c #906034",
"F  c #916034",
"G  c #926034",
"H  c #926134",
"J  c #936134",
"K  c #936135",
"L  c #946235",
"P  c #956235",
"I  c #966337",
"U  c #9D673B",
"Y  c #9E673C",
"T  c #9E683C",
"R  c #9F683C",
"E  c #8D5A44",
"W  c #A86E42",
"Q  c #B9774C",
"!  c #BF7B50",
"~  c #1D973B",
"^  c #1E973A",
"/  c #1F973A",
"(  c #1E983A",
")  c #1F983A",
"_  c #2C9D37",
"`  c #2E9E37",
"'  c #20983A",
"]  c #24983B",
"[  c #2B9C38",
"{  c #5AAF2D",
"}  c #5CB02C",
"|  c #48A831",
" . c #4AA931",
".. c #4CAA30",
"X. c #79BC25",
"o. c #7BBD25",
"O. c #7ABC26",
"+. c #389940",
"@. c #3B9941",
"#. c #84C023",
"$. c #85C123",
"%. c #86C123",
"&. c #87C123",
"*. c #86C222",
"=. c #87C223",
"-. c #89C222",
";. c #88C223",
":. c #C4AC52",
">. c #C9AF51",
",. c #CEAE54",
"<. c #E48F6A",
"1. c #E69267",
"2. c #E89268",
"3. c #EB946B",
"4. c #EB946D",
"5. c #EF966F",
"6. c #E19F6E",
"7. c #F2986E",
"8. c #F2996E",
"9. c #F3996F",
"0. c #F4996F",
"q. c #F79B72",
"w. c #F89C73",
"e. c #FB9E74",
"r. c #FE9F76",
"t. c #FF9F77",
"y. c #FF9F78",
"u. c #E5A06F",
"i. c #FBA075",
"p. c #FEA076",
"a. c #FFA076",
"s. c #FFA176",
"d. c #FFA077",
"f. c #FFA177",
"g. c #FFA278",
/* pixels */
"                                                                                                ",
"                                                                                                ",
"                                                                                                ",
"                                                                                                ",
"                                                                                                ",
"                                                                                                ",
"                                      F F F F F F F F F F F F                                   ",
"                                      F F F F F F A F F F F F                                   ",
"                                      F F F F F U T I F F F F                                   ",
"                    % %           F F F F F F U 1.9.Q B F F F F F F F F                         ",
"                    % %           A F F F F B Y 9.g.! B F F F F F F F F                         ",
"                    % *           T U n l C Y W 2.9.Q B F F F F F F F F                         ",
"                        e.a.a.a.e.9.3.t = Z 0.2.W Y I F F F F F F F F F F F                     ",
"                        a.a.a.a.a.a.w.e . h g.9.Y B F F F F F F F F F F F F                     ",
"                        a.a.5.<.4.a.w.f , E a.9.T S F F F F F F F F F F F F                     ",
"                        a.a.E , f w.a.4.<.5.a.9.T S F F F F F F F F F F                         ",
"                        a.a.h . e q.a.a.a.a.a.9.T S F F F F F F F F F F                         ",
"                        6.u.j . r w.a.a.a.a.a.9.T S F F F F F F F B z z                         ",
"          %.%.%.;.} ) ] +.+.      r.a.a.a.a.a.9.T S F F F F F F F u ; < z F F F F               ",
"          %.%.%.;.} ) ' ) )       a.a.a.a.a.a.9.T S F F F F F F F y $ ; z F F F F               ",
"          %.%.%.;.} ) ' ' '       a.a.a.a.a.a.9.T S F F B x x B F u ; 3 x F F F F               ",
"          %.%.%.;.} ) ' ' '       a.a.a.a.a.a.9.T S F F s > > s F B z x C F                     ",
"          %.%.%.;.} ^ ) ) )       a.a.a.a.a.a.9.T S F F a * * a I F F F F F                     ",
"          O.O.O.O.{ ` ` ` `       a.a.a.a.a.a.9.T S F F s > : i x n F F F F                     ",
"          ` ` ` [ ..O.O.O.O.:.y.a.a.a.a.a.a.a.9.T S F F B x k 5 - q F F F F F F F               ",
"          ) ) ) ^ | %.%.%.%.,.r.a.a.a.a.a.a.a.9.T A F F F F B 3 + 8 F F F F F F F               ",
"          ' ' ' ^ | %.%.%.%.>.y.a.a.a.a.a.a.a.9.T F n l x F B 7 - q F F F F n z x               ",
"          ' ' ' ^ | %.%.%.%.      a.a.a.a.a.a.9.T F q - 7 B F x l n F F F F q - 5 B F           ",
"          ' ' ' ^ | %.%.%.%.      a.a.a.a.a.a.9.T F 8 + 3 B F F F F F F F F 8 O 3 B F           ",
"          ' ' ' ^ | O.O.%.%.      a.a.a.a.a.a.9.T F q - 5 k x B F B z x C F q - 5 B F           ",
"                    ` `           a.a.a.a.a.a.9.T F n x i : > s I u ; 3 x F n z x               ",
"                    ) )           a.a.a.a.a.a.9.T A F I a * * a I y $ ; x F F F F               ",
"                    ' '           a.a.a.a.a.a.9.T S F F s > > s I u ; < s x B F F               ",
"                    ' '           a.a.a.a.a.a.9.T S F F B x x B F B x s < ; u F F F F           ",
"                    ' '           a.a.a.a.a.a.9.T S F F F F F F F F F x ; $ y F F F F           ",
"                    ' ]           a.a.a.a.a.a.9.T S F F B x x B F F F x 3 ; u F F F F           ",
"              ' ' '     i.a.a.a.a.a.a.a.a.a.a.9.T S F F s > > s F F F C x z B F F               ",
"              ' ' '     a.a.a.a.a.a.a.a.a.a.a.9.T S F F a * * a I F F F F F F F F               ",
"              ' ' '     a.a.a.a.a.a.a.a.a.a.a.9.T S F F s > : i x n F F F F n z x               ",
"                        a.a.a.a.a.a.a.a.a.a.a.9.T S F F B x k 5 - q F F F F q - 5 B F           ",
"                        a.a.a.a.a.a.a.a.a.a.a.9.T S F F F F B 3 + 9 F F F F 9 + 3 B F           ",
"                        a.a.a.a.a.a.a.a.a.a.a.9.T S F F F F B 3 + 9 F F F F 9 + 3 B F           ",
"                                                                                                ",
"                                                                                                ",
"                                                                                                ",
"                                                                                                ",
"                                                                                                ",
"                                                                                                "
};
