/* XPM */
static char *_88af468f8a840d9b10af2aeb5e093c6BFwB6jbiOUG4pWRJ[] = {
/* columns rows colors chars-per-pixel */
"48 48 34 1 ",
"  c black",
". c #73430E",
"X c #73430E",
"o c #73430E",
"O c #73430E",
"+ c #73430E",
"@ c #73430E",
"# c #73430E",
"$ c #73430E",
"% c #73430E",
"& c #73430E",
"* c #73430E",
"= c #73430E",
"- c #73430E",
"; c #73430E",
": c #73430E",
"> c #73430E",
", c #73430E",
"< c #73430E",
"1 c None",
"2 c #73430E",
"3 c #73430E",
"4 c #73430E",
"5 c #73430E",
"6 c #73430E",
"7 c #73430E",
"8 c #73430E",
"9 c #73430E",
"0 c #73430E",
"q c #73430E",
"w c #73430E",
"e c #73430E",
"r c #73430E",
"t c white",
/* pixels */
"                                                ",
"                                                ",
"                                                ",
"                                                ",
"                                                ",
"                                                ",
"                   ..........                   ",
"                   .XooooooX.                   ",
"                   .O+@@@@+O.                   ",
"                   .#rrrrrr#.                   ",
"                   .$rrrrrr$.                   ",
"                   .$rrrrrr$.                   ",
"                   .$rrrrrr$.                   ",
"                   .$rrrrrr$.                   ",
"            ........%rrrrrr%........            ",
"            .&*oooo=-rrrrrr-=oooo*&.            ",
"            .;:>@@@@,rrrrrr,@@@@>:;.            ",
"            .<1rrrrrrrrrrrrrrrrrr1<.            ",
"            .23rrrrrrrrrrrrrrrrrr32.            ",
"            .23rrrrrrrrrrrrrrrrrr32.            ",
"            .23rrrrrrrrrrrrrrrrrr32.            ",
"            .23rrrrrrrrrrrrrrrrrr32.            ",
"     ........43rrrrrrrrrrrrrrrrrr34........     ",
"     .56oooo=73rrrrrrrrrrrrrrrrrr37=oooo65.     ",
"     .89>@@@@0rrrrrrrrrrrrrrrrrrrr0@@@@>98.     ",
"     .qwrrrrrrrrrrrrrrrrrrrrrrrrrrrrrrrrwq.     ",
"     .qerrrrrrrrrrrrrrrrrrrrrrrrrrrrrrrreq.     ",
"     .qerrrrrrrrrrrrrrrrrrrrrrrrrrrrrrrreq.     ",
"     .qerrrrrrrrrrrrrrrrrrrrrrrrrrrrrrrreq.     ",
"     .qerrrrrrrrrrrrrrrrrrrrrrrrrrrrrrrreq.     ",
"     .qerrrrrrrrrrrrrrrrrrrrrrrrrrrrrrrreq.     ",
"     .qerrrrrrrrrrrrrrrrrrrrrrrrrrrrrrrreq.     ",
"     .qerrrrrrrrrrrrrrrrrrrrrrrrrrrrrrrreq.     ",
"     .qerrrrrrrrrrrrrrrrrrrrrrrrrrrrrrrreq.     ",
"     .qerrrrrrrrrrrrrrrrrrrrrrrrrrrrrrrreq.     ",
"     .qerrrrrrrrrrrrrrrrrrrrrrrrrrrrrrrreq.     ",
"     .qerrrrrrrrrrrrrrrrrrrrrrrrrrrrrrrreq.     ",
"     .qerrrrrrrrrrrrrrrrrrrrrrrrrrrrrrrreq.     ",
"     .qwrrrrrrrrrrrrrrrrrrrrrrrrrrrrrrrrwq.     ",
"     .89>@@@@@@@@@@@@@@@@@@@@@@@@@@@@@@>98.     ",
"     .56oooooooooooooooooooooooooooooooo65.     ",
"     ......................................     ",
"                                                ",
"                                                ",
"                                                ",
"                                                ",
"                                                ",
"                                                "
};
